<svg xmlns="http://www.w3.org/2000/svg" viewBox="0 0 295.84 60"><defs><style>.cls-1{fill:#db1e30;}.cls-2{fill:none;}.cls-3{fill:#0099dc;}.cls-4{fill:#fff;}.cls-5{fill:#f4a717;}.cls-6{fill:#0a944a;}.cls-7{fill:#58595b;}</style></defs><title>Mudah 295x60</title><g id="Layer_2" data-name="Layer 2"><g id="artwork"><path class="cls-1" d="M280.42,25.12a.9.9,0,0,1,0-.79q.18-.33.79-.33H284a.65.65,0,0,1,.47.18,1.11,1.11,0,0,1,.28.44L288,33.86l3.18-9.24a.93.93,0,0,1,.32-.49,1,1,0,0,1,.54-.13h3a1.22,1.22,0,0,1,.51.09.5.5,0,0,1,.31.55,1.41,1.41,0,0,1-.09.35l-1,2.36L293.72,30l-1.13,2.81-1.12,2.81-1.05,2.65-.92,2.33-.73,1.87-.47,1.24,0-.06a1,1,0,0,1-.29.5.72.72,0,0,1-.51.19h-2.65a1,1,0,0,1-.71-.2.83.83,0,0,1-.19-.59.53.53,0,0,1,0-.23.44.44,0,0,1,.06-.1l1.8-4.68Z"/><circle class="cls-1" cx="248.47" cy="35.08" r="3.48"/><path class="cls-1" d="M256.84,37.9V25.08a.84.84,0,0,1,.21-.59.68.68,0,0,1,.52-.23h2.68a.67.67,0,0,1,.53.23.85.85,0,0,1,.2.59v.83a7.89,7.89,0,0,1,1.69-1.42,3.86,3.86,0,0,1,2-.49,4.59,4.59,0,0,1,4.23,2.53Q271.14,24,273.46,24a4.69,4.69,0,0,1,3.72,1.55,7.12,7.12,0,0,1,1.36,4.79V37.9a.83.83,0,0,1-.2.58.68.68,0,0,1-.53.22h-2.67a.69.69,0,0,1-.53-.23.82.82,0,0,1-.21-.57V30.34q0-3.16-2.08-3.15-1.27,0-2.62,2a9,9,0,0,1,.07,1.13V37.9a.81.81,0,0,1-.21.58.68.68,0,0,1-.52.22h-2.67a.69.69,0,0,1-.53-.23.82.82,0,0,1-.21-.57V30.34q0-3.16-2.08-3.15-1.33,0-2.55,1.88V37.9a.81.81,0,0,1-.21.58.68.68,0,0,1-.52.22h-2.68a.68.68,0,0,1-.53-.22A.83.83,0,0,1,256.84,37.9Z"/><path class="cls-1" d="M96.71,36.84V15.76a1.38,1.38,0,0,1,.34-1,1.11,1.11,0,0,1,.86-.38h4.41a1.1,1.1,0,0,1,.87.38,1.4,1.4,0,0,1,.33,1v1.36a13,13,0,0,1,2.79-2.33,6.35,6.35,0,0,1,3.3-.81,7.55,7.55,0,0,1,7,4.16Q120.23,14,124,14a7.72,7.72,0,0,1,6.11,2.55q2.23,2.55,2.24,7.87V36.84a1.36,1.36,0,0,1-.33,1,1.12,1.12,0,0,1-.87.37h-4.39a1.13,1.13,0,0,1-.88-.38,1.35,1.35,0,0,1-.34-.94V24.4q0-5.2-3.43-5.18-2.09,0-4.31,3.31A14.82,14.82,0,0,1,118,24.4V36.84a1.34,1.34,0,0,1-.34,1,1.12,1.12,0,0,1-.86.37h-4.39a1.13,1.13,0,0,1-.88-.38,1.35,1.35,0,0,1-.34-.94V24.4q0-5.2-3.43-5.18-2.19,0-4.2,3.1V36.84a1.34,1.34,0,0,1-.34,1,1.13,1.13,0,0,1-.86.37H97.91a1.12,1.12,0,0,1-.87-.37A1.36,1.36,0,0,1,96.71,36.84Z"/><path class="cls-1" d="M137.24,28.17V15.76a1.38,1.38,0,0,1,.34-1,1.11,1.11,0,0,1,.86-.38h4.41a1.1,1.1,0,0,1,.87.38,1.4,1.4,0,0,1,.33,1v12.4q0,5.19,3.74,5.19,2.46,0,5.3-3.12V15.76a1.38,1.38,0,0,1,.34-1,1.11,1.11,0,0,1,.86-.38h4.39a1.13,1.13,0,0,1,.88.38,1.38,1.38,0,0,1,.34,1V36.84a1.34,1.34,0,0,1-.34,1,1.15,1.15,0,0,1-.88.37H154.3a1.1,1.1,0,0,1-.87-.38,1.38,1.38,0,0,1-.33-.95V35.44q-3.39,3.15-6.89,3.15A8.55,8.55,0,0,1,139.65,36Q137.24,33.46,137.24,28.17Z"/><path class="cls-1" d="M163.52,26.3q0-6,2.81-9.14A9.59,9.59,0,0,1,173.88,14a17.72,17.72,0,0,1,5.7,1.1V5.62a1.38,1.38,0,0,1,.34-1,1.11,1.11,0,0,1,.86-.38h4.39a1.13,1.13,0,0,1,.88.38,1.38,1.38,0,0,1,.34,1V36.84a1.34,1.34,0,0,1-.34,1,1.15,1.15,0,0,1-.88.37H181.4a1.1,1.1,0,0,1-.87-.38,1.38,1.38,0,0,1-.33-.95v-.67a10.58,10.58,0,0,1-6.83,2.44,8.92,8.92,0,0,1-7.11-3.2Q163.52,32.19,163.52,26.3Zm6.81,0a10.36,10.36,0,0,0,1.07,5.36,3.82,3.82,0,0,0,3.49,1.69,9,9,0,0,0,4.7-1.95V20.09a13,13,0,0,0-4.28-.87,4.29,4.29,0,0,0-3.84,1.68Q170.33,22.58,170.33,26.3Z"/><path class="cls-1" d="M192.81,36.6A6.67,6.67,0,0,1,190.2,31a6.56,6.56,0,0,1,2.61-5.59,10.94,10.94,0,0,1,6.73-1.95h6.52a5,5,0,0,0-1-3.53,4.11,4.11,0,0,0-3.06-1q-2.74,0-3.85,1.47a2.67,2.67,0,0,1-2.26,1.15H193a1.13,1.13,0,0,1-.87-.38,1.35,1.35,0,0,1-.34-.94q0-6.22,10.73-6.22A11.57,11.57,0,0,1,210,16.29q2.84,2.31,2.84,7.14V36.84a1.36,1.36,0,0,1-.33,1,1.12,1.12,0,0,1-.87.37h-3.8a1.1,1.1,0,0,1-.87-.38,1.37,1.37,0,0,1-.33-.94v-.67a11.11,11.11,0,0,1-7.13,2.43A10.77,10.77,0,0,1,192.81,36.6ZM197,31a2.52,2.52,0,0,0,.83,1.95,3.35,3.35,0,0,0,2.35.76,10.18,10.18,0,0,0,5.86-1.95V28.34H200a3.1,3.1,0,0,0-2.18.74A2.45,2.45,0,0,0,197,31Z"/><path class="cls-1" d="M217.71,36.84V5.62a1.38,1.38,0,0,1,.34-1,1.11,1.11,0,0,1,.86-.38h4.41a1.1,1.1,0,0,1,.87.38,1.4,1.4,0,0,1,.33,1v11.5A10.18,10.18,0,0,1,231.42,14,8.55,8.55,0,0,1,238,16.55q2.4,2.57,2.4,7.85V36.84a1.34,1.34,0,0,1-.34,1,1.15,1.15,0,0,1-.88.37h-4.39a1.1,1.1,0,0,1-.87-.38,1.37,1.37,0,0,1-.33-.94V24.4q0-5.2-3.76-5.18-2.46,0-5.28,3.1V36.84a1.34,1.34,0,0,1-.34,1,1.13,1.13,0,0,1-.86.37h-4.41a1.12,1.12,0,0,1-.87-.37A1.36,1.36,0,0,1,217.71,36.84Z"/><path class="cls-2" d="M1.06,55.15l.1.08.06,0-.06,0Z"/><path class="cls-2" d="M.81,54.9l0,0,0,0L.94,55l0,0,0,0Z"/><path class="cls-2" d="M1.84,55.56l-.12,0,.12,0,.07,0h0Z"/><path class="cls-2" d="M.5,54.44l0,.07,0,0,0,0Z"/><path class="cls-2" d="M0,46.5A3.35,3.35,0,0,1,.83,44a3.17,3.17,0,0,1,.28-.27A3.17,3.17,0,0,0,.83,44,3.35,3.35,0,0,0,0,46.5V52.1c0,.22,0,.43,0,.63,0-.2,0-.4,0-.63Z"/><path class="cls-2" d="M.28,53.92l-.06-.17,0-.14,0,.14.06.17.09.23,0,.1,0-.1Z"/><path class="cls-2" d="M26.8,55.71h0Z"/><path class="cls-2" d="M40.05,55.72a5.31,5.31,0,0,1,1.54.23,5.3,5.3,0,0,0-1.54-.23Z"/><path class="cls-2" d="M2.17,55.62h0Z"/><path class="cls-2" d="M44.4,57.77h0a7.45,7.45,0,0,0,1.72,1.31,7.45,7.45,0,0,1-1.72-1.31Z"/><path class="cls-2" d="M43.89,57.25c.16.14.28.26.36.35l.06.07-.06-.07C44.17,57.52,44,57.39,43.89,57.25Z"/><path class="cls-2" d="M8.51,42.16c-.38.08-.73.14-1.06.19l-.77.09.77-.09C7.77,42.3,8.13,42.23,8.51,42.16Z"/><path class="cls-2" d="M2.33,55.64h0Z"/><path class="cls-2" d="M5.7,55.63a4.13,4.13,0,0,1,2.45,1.25A4.13,4.13,0,0,0,5.7,55.63Z"/><path class="cls-2" d="M82,10.74a3.93,3.93,0,0,1,.67.9A3.93,3.93,0,0,0,82,10.74Z"/><path class="cls-2" d="M81.11,55.31a3.9,3.9,0,0,1-.7.3A3.9,3.9,0,0,0,81.11,55.31Z"/><path class="cls-2" d="M79.24,55.78a3.92,3.92,0,0,0,1.17-.18,3.92,3.92,0,0,1-1.17.18Z"/><path class="cls-2" d="M49.69,60a7.45,7.45,0,0,0,.78,0,7.45,7.45,0,0,1-.78,0Z"/><path class="cls-2" d="M82.69,53.73a3.93,3.93,0,0,1-.67.9A3.93,3.93,0,0,0,82.69,53.73Z"/><path class="cls-2" d="M55.78,57l.09-.08.15-.13-.15.13Z"/><path class="cls-2" d="M81.11,10.07a3.93,3.93,0,0,1,.9.67A3.93,3.93,0,0,0,81.11,10.07Z"/><path class="cls-2" d="M1.44,55.4h0l-.21-.13Z"/><path class="cls-2" d="M1.72,43.32a4.2,4.2,0,0,1,.42-.19A4.19,4.19,0,0,0,1.72,43.32Z"/><path class="cls-2" d="M3.07,42.85c.56-.11,1.06-.18,1.53-.23C4.13,42.67,3.63,42.74,3.07,42.85Z"/><path class="cls-2" d="M4.6,42.62l1.34-.12Z"/><path class="cls-2" d="M13.49,60a7.32,7.32,0,0,1-2.28-.64A7.32,7.32,0,0,0,13.49,60Z"/><path class="cls-2" d="M8.45,57.18l-.3-.29Z"/><path class="cls-2" d="M17.3,38.8h0l-.21.08-.49.21.49-.21Z"/><path class="cls-2" d="M10.52,59A7.46,7.46,0,0,1,9.29,58,7.46,7.46,0,0,0,10.52,59Z"/><path class="cls-2" d="M56.66,56.29l-.18.11-.22.17h0l.22-.17.18-.11,0,0h0Z"/><path class="cls-2" d="M57.88,13.51A3.92,3.92,0,0,1,61.8,9.6H79.24a3.9,3.9,0,0,1,1.87.47,3.9,3.9,0,0,0-1.87-.47H61.8a3.92,3.92,0,0,0-3.92,3.92v1.91h0Z"/><path class="cls-2" d="M83.16,51.87a3.91,3.91,0,0,1-.31,1.53,3.91,3.91,0,0,0,.31-1.53V13.51a3.9,3.9,0,0,0-.47-1.87,3.9,3.9,0,0,1,.47,1.87Z"/><path class="cls-3" d="M33.94,1.37a100,100,0,0,0-8.23,7.18q-5.51,5-10.95,10.14c-2.21,2.07-6.3,4.64-6.47,8-.09,1.93,1.76,2.54,3.32,2.82S14.88,30,16.07,31s1.28,3,1.25,4.56c0,.08,0,.16,0,.24.39-.14.79-.27,1.2-.39.69-.2,1.45-.38,2.32-.56l1-.19h0l.12,0c.4-.07.83-.14,1.34-.2h0l.25,0,1.28-.12H25l1.15-.05h.23l1.23,0h4.07V30.7a3,3,0,0,1,3-3h7.57a3,3,0,0,1,3,3v8.77c.77.5,1.52,1,2.29,1.41l.11.06.05,0,.15.09.63.1c1.39.23,4,.65,6.29,1.11l.34.07V13.51c0-.16,0-.32,0-.48C48.29,7.2,41.2,1,41.2,1A6.3,6.3,0,0,0,33.94,1.37Z"/><path class="cls-4" d="M31.9,34.18h1l.32,0h.15l.25,0,.58.07.16,0c4,.59,7,2.59,9.9,4.52l.92.6V30.7a3,3,0,0,0-3-3H34.68a3,3,0,0,0-3,3v3.47h.17Z"/><path class="cls-5" d="M82.69,11.65A3.92,3.92,0,0,0,79.24,9.6H61.8a3.92,3.92,0,0,0-3.92,3.92V43l1.14.28.7.19.58.17a13.06,13.06,0,0,1,3.52,1.62,2.92,2.92,0,0,1-.05-.51V18.37a3,3,0,0,1,3-3h7.57a3,3,0,0,1,3,3V44.72a3,3,0,0,1-3,3H66.74a2.92,2.92,0,0,1-.65-.08A6.76,6.76,0,0,1,67,50,11.86,11.86,0,0,1,67,51.72v1.83a5,5,0,0,1-.32,2c0,.1-.09.19-.13.28H79.24a3.92,3.92,0,0,0,3.45-2.05q.09-.17.17-.34a3.91,3.91,0,0,0,.31-1.53V13.51A3.9,3.9,0,0,0,82.69,11.65ZM70.52,53.32a1.88,1.88,0,1,1,1.88-1.88A1.88,1.88,0,0,1,70.52,53.32Z"/><circle class="cls-4" cx="70.52" cy="51.43" r="1.88"/><path class="cls-4" d="M74.31,15.42H66.74a3,3,0,0,0-3,3V44.72a2.92,2.92,0,0,0,.05.51l.4.29a7.35,7.35,0,0,1,1.85,2.08,2.92,2.92,0,0,0,.65.08h7.57a3,3,0,0,0,3-3V18.37A3,3,0,0,0,74.31,15.42Z"/><path class="cls-6" d="M64.23,51.88c0-.2,0-.46,0-.73a6,6,0,0,0-.05-.73,3.91,3.91,0,0,0-.37-1.15,4.26,4.26,0,0,0-.68-1,4.82,4.82,0,0,0-.6-.55,6.62,6.62,0,0,0-.7-.47,10.33,10.33,0,0,0-1.94-.84l-.15-.05-.25-.08c-.38-.12-.76-.22-1.15-.32l-.45-.11-.76-.18-.8-.19-.25-.06-1-.22-.32-.07L54.18,45,52,44.62c-1.27-.23-2.5-.43-3.42-.58l-1.42-.23a1.87,1.87,0,0,1-.49-.17c-.16-.08-.31-.17-.46-.25l-.09-.05-.91-.53L43.91,42,42.47,41c-2.63-1.74-5.27-3.43-8.5-3.91h-.11l-.49-.06-.24,0h0l-.34,0H27.66l-1.17,0h-.22l-1.06,0H25l-1.16.11-.26,0c-.4,0-.79.1-1.18.18h0l-1,.2-1.13.25-1,.26-.67.21-.62.22-.46.18-.25.1-.21.08-.49.21c-1.17.51-2.5,1.16-4.64,2.07-.8.29-1.49.5-2.11.67l-1,.24-.38.08c-.38.08-.73.14-1.06.19l-.77.09-.73.06-1.34.12c-.47.05-1,.12-1.53.23a5.18,5.18,0,0,0-.94.28,4.2,4.2,0,0,0-.42.19l-.26.16a3.32,3.32,0,0,0-.35.26A3.17,3.17,0,0,0,.83,44,3.35,3.35,0,0,0,0,46.5V52.1c0,.22,0,.43,0,.63s0,.12,0,.18,0,.25,0,.36,0,.13,0,.19l0,.14,0,.14.06.17.09.23,0,.1,0,.05.07.13,0,.07,0,0,0,.08.12.16.05.07,0,0L.94,55l0,0,0,0,.05,0,.1.08.06,0,.21.13h0l.18.08.07,0,.12,0,.07,0H5.7a4.13,4.13,0,0,1,2.45,1.25l.3.29.27.29h0A7.48,7.48,0,0,0,10.52,59a7.37,7.37,0,0,0,8.8-.91,7.47,7.47,0,0,0,.54-.55l0,0a6.84,6.84,0,0,1,.55-.49,6.76,6.76,0,0,1,.69-.48,6.37,6.37,0,0,1,.72-.39A3.82,3.82,0,0,1,23,55.8l.35,0,.9,0h0c.76,0,1.52,0,2.29,0H40.05a5.3,5.3,0,0,1,1.54.23,6,6,0,0,1,1.73.85l.41.31.17.15c.16.14.28.26.36.35l.06.07,0,0,.05.06h0a7.45,7.45,0,0,0,1.72,1.31,7.35,7.35,0,0,0,3.57.92,7.45,7.45,0,0,0,.78,0,7.33,7.33,0,0,0,2.18-.58A7.45,7.45,0,0,0,55,57.7l0,0h0l.32-.32.07-.06.28-.27,0,0,.09-.08.15-.13.08-.07.14-.11h0l.22-.17.18-.11,0,0h0l.16-.1.14-.07,0,0,.24-.11.2-.06.19-.06.06,0,.21,0H58l.15,0h0l1.92,0h1.93a2.23,2.23,0,0,0,.48-.06,2.12,2.12,0,0,0,.51-.18l.23-.14.21-.18L63.7,55a2,2,0,0,0,.43-.6,1.86,1.86,0,0,0,.11-.66c0-.08,0-.15,0-.22Q64.24,52.72,64.23,51.88Z"/><path class="cls-7" d="M113.61,55.18a.55.55,0,0,1-.56.58.55.55,0,0,1-.56-.58v-.5h0a2.33,2.33,0,0,1-2,1.08c-2,0-3.17-1.77-3.17-3.68s1.14-3.68,3.17-3.68a2.52,2.52,0,0,1,2,1h0V49a.55.55,0,0,1,.56-.58.55.55,0,0,1,.56.58Zm-3.1-.45c1.46,0,2-1.44,2-2.65s-.51-2.65-2-2.65-2,1.44-2,2.65S109,54.73,110.51,54.73Z"/><path class="cls-7" d="M117.18,55.13a.6.6,0,1,1-1.19,0V45.86a.6.6,0,1,1,1.19,0Z"/><path class="cls-7" d="M125.52,55.18a.55.55,0,0,1-.56.58.55.55,0,0,1-.56-.58v-.5h0a2.33,2.33,0,0,1-2,1.08c-2,0-3.17-1.77-3.17-3.68s1.14-3.68,3.17-3.68a2.52,2.52,0,0,1,2,1h0V49a.55.55,0,0,1,.56-.58.55.55,0,0,1,.56.58Zm-3.1-.45c1.46,0,2-1.44,2-2.65s-.51-2.65-2-2.65-2,1.44-2,2.65S121,54.73,122.42,54.73Z"/><path class="cls-7" d="M127.51,49.56a2.08,2.08,0,0,1-.16-.66.53.53,0,0,1,.54-.5.61.61,0,0,1,.6.45l1.65,4.94h0l1.62-4.94a.58.58,0,0,1,.57-.45.53.53,0,0,1,.54.5,2.09,2.09,0,0,1-.16.66l-3,8.6a.61.61,0,0,1-.58.45.53.53,0,0,1-.54-.5,1.9,1.9,0,0,1,.18-.66l.76-2Z"/><path class="cls-7" d="M137,48.4c1,0,2.4.53,2.4,1.27a.49.49,0,0,1-.54.49c-.51,0-.72-.73-1.86-.73-.68,0-1.26.3-1.26.91,0,1.26,3.85,1.12,3.85,3.21,0,1.5-1.29,2.22-2.63,2.22-1.52,0-2.71-.76-2.71-1.37a.51.51,0,0,1,.49-.54c.53,0,1,.88,2.26.88.87,0,1.39-.49,1.39-1,0-1.41-3.85-1.33-3.85-3.33A2.22,2.22,0,0,1,137,48.4Z"/><path class="cls-7" d="M142.15,46a.73.73,0,1,1-.73.73A.73.73,0,0,1,142.15,46Zm.6,9.17a.6.6,0,1,1-1.19,0V49a.6.6,0,1,1,1.19,0Z"/><path class="cls-7" d="M151.09,55.18a.55.55,0,0,1-.56.58.55.55,0,0,1-.56-.58v-.5h0a2.33,2.33,0,0,1-2,1.08c-2,0-3.17-1.77-3.17-3.68S146,48.4,148,48.4a2.52,2.52,0,0,1,2,1h0V49a.55.55,0,0,1,.56-.58.55.55,0,0,1,.56.58Zm-3.1-.45c1.46,0,2-1.44,2-2.65s-.51-2.65-2-2.65-2,1.44-2,2.65S146.53,54.73,148,54.73Z"/><path class="cls-7" d="M153.93,46.46c.14-.26.28-.5.64-.5a.53.53,0,0,1,.54.51,1.07,1.07,0,0,1-.15.5l-.76,1.49c-.14.26-.28.5-.64.5a.53.53,0,0,1-.54-.51,1.07,1.07,0,0,1,.15-.5Z"/><path class="cls-7" d="M158.59,48.4c1,0,2.4.53,2.4,1.27a.48.48,0,0,1-.54.49c-.51,0-.72-.73-1.86-.73-.68,0-1.26.3-1.26.91,0,1.26,3.85,1.12,3.85,3.21,0,1.5-1.29,2.22-2.63,2.22-1.52,0-2.71-.76-2.71-1.37a.51.51,0,0,1,.49-.54c.53,0,1,.88,2.26.88.87,0,1.39-.49,1.39-1,0-1.41-3.85-1.33-3.85-3.33A2.22,2.22,0,0,1,158.59,48.4Z"/><path class="cls-7" d="M168.52,54.57h2.55a.56.56,0,1,1,0,1.11H168a.59.59,0,0,1-.64-.65V46.6a.6.6,0,1,1,1.19,0Z"/><path class="cls-7" d="M179.36,55.18a.55.55,0,0,1-.56.58.55.55,0,0,1-.56-.58v-.5h0a2.33,2.33,0,0,1-2,1.08c-2,0-3.17-1.77-3.17-3.68s1.14-3.68,3.17-3.68a2.52,2.52,0,0,1,2,1h0V49a.55.55,0,0,1,.56-.58.55.55,0,0,1,.56.58Zm-3.1-.45c1.46,0,2-1.44,2-2.65s-.51-2.65-2-2.65-2,1.44-2,2.65S174.8,54.73,176.26,54.73Z"/><path class="cls-7" d="M181.75,49a.6.6,0,1,1,1.19,0v.61h0a2.14,2.14,0,0,1,1.63-1.25.61.61,0,0,1,.66.61c0,.34-.24.56-.74.65a1.88,1.88,0,0,0-1.57,2v3.43a.6.6,0,1,1-1.19,0Z"/><path class="cls-7" d="M192.73,55.17a3.12,3.12,0,0,1-3.25,3.44c-1.23,0-2.76-.7-2.76-1.31a.5.5,0,0,1,.5-.56c.54,0,1.07.84,2.36.84,1.52,0,2-1.19,2-2.22v-.62h0a2.07,2.07,0,0,1-1.83,1c-2,0-3.17-1.77-3.17-3.68s1.14-3.68,3.17-3.68a2.44,2.44,0,0,1,1.83.91h0V49a.57.57,0,0,1,.64-.58.55.55,0,0,1,.56.58Zm-3-.43c1.46,0,2-1.44,2-2.65s-.51-2.65-2-2.65-2,1.44-2,2.65S188.22,54.73,189.68,54.73Z"/><path class="cls-7" d="M195.92,52.54a2.05,2.05,0,0,0,2.13,2.19c1.58,0,2-1,2.44-1a.47.47,0,0,1,.43.53c0,.58-1.48,1.48-2.88,1.48-2.3,0-3.3-1.77-3.3-3.68S196,48.4,198,48.4a3.28,3.28,0,0,1,3.1,3.51c0,.42-.15.64-.66.64Zm4-.89A2,2,0,0,0,198,49.43c-1.48-.05-2,1.12-2,2.22Z"/><path class="cls-7" d="M205.31,48.4c1,0,2.4.53,2.4,1.27a.48.48,0,0,1-.54.49c-.51,0-.72-.73-1.86-.73-.68,0-1.26.3-1.26.91,0,1.26,3.85,1.12,3.85,3.21,0,1.5-1.29,2.22-2.63,2.22-1.52,0-2.71-.76-2.71-1.37a.51.51,0,0,1,.49-.54c.53,0,1,.88,2.26.88.87,0,1.39-.49,1.39-1,0-1.41-3.85-1.33-3.85-3.33A2.22,2.22,0,0,1,205.31,48.4Z"/><path class="cls-7" d="M210.22,46.92a.6.6,0,1,1,1.19,0v1.56h.49c.39,0,.6.19.6.51s-.2.51-.6.51h-.49v5.62a.6.6,0,1,1-1.19,0V49.51h-.49c-.39,0-.6-.19-.6-.51s.2-.51.6-.51h.49Z"/><path class="cls-7" d="M235.58,55.18a.55.55,0,0,1-.56.58.55.55,0,0,1-.56-.58v-.5h0a2.33,2.33,0,0,1-2,1.08c-2,0-3.17-1.77-3.17-3.68s1.14-3.68,3.17-3.68a2.52,2.52,0,0,1,2,1h0V49a.55.55,0,0,1,.56-.58.55.55,0,0,1,.56.58Zm-3.1-.45c1.46,0,2-1.44,2-2.65s-.51-2.65-2-2.65-2,1.44-2,2.65S231,54.73,232.48,54.73Z"/><path class="cls-7" d="M238,49a.6.6,0,1,1,1.19,0v.61h0a2.14,2.14,0,0,1,1.63-1.25.61.61,0,0,1,.66.61c0,.34-.24.56-.74.65a1.88,1.88,0,0,0-1.57,2v3.43a.6.6,0,1,1-1.19,0Z"/><path class="cls-7" d="M243.32,45.86a.6.6,0,1,1,1.19,0v5.08l2.6-2.18a1.17,1.17,0,0,1,.68-.37.49.49,0,0,1,.5.53.62.62,0,0,1-.3.51l-2.71,2.14,3.14,3.1a.75.75,0,0,1,.28.61.49.49,0,0,1-.5.47c-.28,0-.41-.08-.69-.37l-3-3.14v2.87a.6.6,0,1,1-1.19,0Z"/><path class="cls-7" d="M251.16,52.54a2.05,2.05,0,0,0,2.13,2.19c1.58,0,2-1,2.44-1a.47.47,0,0,1,.43.53c0,.58-1.48,1.48-2.88,1.48-2.3,0-3.3-1.77-3.3-3.68s1.22-3.68,3.24-3.68a3.28,3.28,0,0,1,3.1,3.51c0,.42-.15.64-.66.64Zm4-.89a2,2,0,0,0-1.91-2.22c-1.48-.05-2,1.12-2,2.22Z"/><path class="cls-7" d="M258.9,46.92a.6.6,0,1,1,1.19,0v1.56h.49c.39,0,.6.19.6.51s-.2.51-.6.51h-.49v5.62a.6.6,0,1,1-1.19,0V49.51h-.49c-.39,0-.6-.19-.6-.51s.2-.51.6-.51h.49Z"/><path class="cls-7" d="M263.18,49a.6.6,0,1,1,1.19,0v.35h0a2,2,0,0,1,1.92-1c1.95,0,3.07,1.77,3.07,3.68s-1.12,3.68-3.07,3.68a2.35,2.35,0,0,1-1.92-1h0V58a.6.6,0,1,1-1.19,0Zm3,5.7c1.46,0,2-1.44,2-2.65s-.51-2.65-2-2.65-2,1.44-2,2.65S264.76,54.73,266.23,54.73Z"/><path class="cls-7" d="M272.66,55.13a.6.6,0,1,1-1.19,0V45.86a.6.6,0,1,1,1.19,0Z"/><path class="cls-7" d="M281,55.18a.55.55,0,0,1-.56.58.55.55,0,0,1-.56-.58v-.5h0a2.33,2.33,0,0,1-2,1.08c-2,0-3.17-1.77-3.17-3.68s1.14-3.68,3.17-3.68a2.52,2.52,0,0,1,2,1h0V49a.55.55,0,0,1,.56-.58A.55.55,0,0,1,281,49Zm-3.1-.45c1.46,0,2-1.44,2-2.65s-.51-2.65-2-2.65-2,1.44-2,2.65S276.44,54.73,277.9,54.73Z"/><path class="cls-7" d="M286.32,48.4c1.22,0,1.94.42,1.94.91a.51.51,0,0,1-.49.5c-.46,0-.64-.38-1.45-.38-1.48,0-2.06,1.44-2.06,2.65s.58,2.65,2.06,2.65c.84,0,1.06-.41,1.44-.41a.45.45,0,0,1,.46.5c0,.45-.66.93-1.9.93-2.19,0-3.25-1.77-3.25-3.68S284.13,48.4,286.32,48.4Z"/><path class="cls-7" d="M290.7,52.54a2.05,2.05,0,0,0,2.13,2.19c1.58,0,2-1,2.44-1a.47.47,0,0,1,.43.53c0,.58-1.48,1.48-2.88,1.48-2.3,0-3.3-1.77-3.3-3.68s1.22-3.68,3.24-3.68a3.28,3.28,0,0,1,3.1,3.51c0,.42-.15.64-.66.64Zm4-.89a2,2,0,0,0-1.91-2.22c-1.48-.05-2,1.12-2,2.22Z"/><path class="cls-7" d="M97.79,55.17c0,.41-.27.51-.53.51s-.47-.39-.45-.71c.1-2.56,0-5.12,0-7.68v-.35c.1-.66.42-.89.78-.89.67,0,.8.76,1,1.25s.38.92.57,1.37L100.52,52a9.67,9.67,0,0,0,.66,1.59h0l2.17-5.24.62-1.51c.17-.42.28-.79.8-.79.36,0,.68.23.78.89l0,6c0,.71,0,1.41,0,2.12,0,.36-.16.6-.46.6s-.49-.09-.53-.51l.22-7.61h0l-.61,1.52-1.26,3.13-1.06,2.64c-.13.33-.21.83-.65.83a.46.46,0,0,1-.44-.3c-.25-.54-.44-1.12-.67-1.67l-.63-1.57-1.3-3.23-.39-1a2.3,2.3,0,0,0-.15-.37h0Z"/><path class="cls-7" d="M101.18,55.76a.54.54,0,0,1-.52-.35c-.16-.36-.3-.73-.44-1.09l-.23-.59L97.68,48l.2,7.19h0a.57.57,0,0,1-.62.58h0a.48.48,0,0,1-.36-.14.87.87,0,0,1-.18-.65c.07-1.88,0-3.79,0-5.64,0-.68,0-1.36,0-2v-.35c.12-.81.54-1,.87-1,.62,0,.82.58,1,1.06l.09.25c.12.3.24.6.37.89l.2.48L100.6,52l.08.21c.1.27.36,1,.49,1.25l2.12-5.12.62-1.51,0-.07c.16-.4.31-.77.86-.77.33,0,.74.17.87,1l0,6c0,.37,0,.75,0,1.11s0,.67,0,1-.21.69-.55.69a.57.57,0,0,1-.62-.58l.2-7.2-2.11,5.25-.67,1.65-.06.18c-.11.31-.24.7-.66.7Zm-3.69-8.29h.11c.07,0,.09,0,.21.38l0,0,2.32,5.77.23.59c.14.36.28.73.44,1.08a.37.37,0,0,0,.36.25h0c.28,0,.38-.23.5-.58l.07-.19.67-1.65,2.29-5.69h.17l-.22,7.7c0,.36.24.42.44.42s.38-.32.38-.51,0-.67,0-1,0-.75,0-1.12l0-6c-.08-.53-.32-.8-.69-.8s-.54.28-.69.66l0,.07-.62,1.51-2.19,5.3h-.08c-.1,0-.17-.06-.66-1.43l-.08-.21L99.06,48.7l-.2-.48c-.12-.29-.25-.6-.37-.9l-.09-.26c-.16-.46-.32-.94-.81-.94s-.61.28-.69.82v.34c0,.68,0,1.36,0,2,0,1.85.05,3.77,0,5.65a.76.76,0,0,0,.13.53.31.31,0,0,0,.24.09h0c.21,0,.4-.05.44-.42Z"/><path class="cls-7" d="M219.77,55.17c0,.41-.27.51-.53.51s-.47-.39-.45-.71c.1-2.56,0-5.12,0-7.68v-.35c.1-.66.42-.89.78-.89.67,0,.8.76,1,1.25s.38.92.57,1.37L222.49,52a9.67,9.67,0,0,0,.66,1.59h0l2.17-5.24.62-1.51c.17-.42.28-.79.8-.79.36,0,.68.23.78.89l0,6c0,.71,0,1.41,0,2.12,0,.36-.16.6-.46.6s-.49-.09-.53-.51l.22-7.61h0l-.61,1.52-1.26,3.13-1.06,2.64c-.13.33-.21.83-.65.83a.46.46,0,0,1-.44-.3c-.25-.54-.44-1.12-.67-1.67l-.63-1.57-1.3-3.23-.39-1a2.3,2.3,0,0,0-.15-.37h0Z"/><path class="cls-7" d="M223.16,55.76a.54.54,0,0,1-.52-.35c-.16-.36-.3-.73-.44-1.09l-.23-.59L219.65,48l.2,7.19h0a.57.57,0,0,1-.62.58h0a.48.48,0,0,1-.36-.14.87.87,0,0,1-.18-.65c.07-1.88,0-3.79,0-5.64,0-.68,0-1.36,0-2v-.35c.12-.81.54-1,.87-1,.62,0,.82.58,1,1.06l.09.25c.12.3.24.6.37.89l.2.48L222.57,52l.08.21c.1.27.36,1,.49,1.25l2.12-5.12.62-1.51,0-.07c.16-.4.31-.77.86-.77.33,0,.74.17.87,1l0,6c0,.37,0,.75,0,1.11s0,.67,0,1-.21.69-.55.69a.57.57,0,0,1-.62-.58l.2-7.2-2.11,5.25-.67,1.65-.06.18c-.11.31-.24.7-.66.7Zm-3.69-8.29h.11c.07,0,.09,0,.21.38l0,0,2.32,5.77.23.59c.14.36.28.73.44,1.08a.37.37,0,0,0,.36.25h0c.28,0,.38-.23.5-.58l.07-.19.67-1.65,2.29-5.69h.17l-.22,7.7c0,.36.24.42.44.42s.38-.32.38-.51,0-.67,0-1,0-.75,0-1.12l0-6c-.08-.53-.32-.8-.69-.8s-.54.28-.69.66l0,.07-.62,1.51-2.19,5.3h-.08c-.1,0-.17-.06-.66-1.43l-.08-.21L221,48.7l-.2-.48c-.12-.29-.25-.6-.37-.9l-.09-.26c-.16-.46-.32-.94-.81-.94s-.61.28-.69.82v.34c0,.68,0,1.36,0,2,0,1.85.05,3.77,0,5.65a.76.76,0,0,0,.13.53.31.31,0,0,0,.24.09h0c.21,0,.4-.05.44-.42Z"/></g></g></svg>